<svg width="26" height="26" viewBox="0 0 26 26" fill="none" xmlns="http://www.w3.org/2000/svg">
<path d="M17.7045 7.47667C16.2939 7.47667 14.9883 7.69471 13.8349 8.097L14.4581 2.15852C14.5123 1.65492 14.0508 1.24539 13.5246 1.30858C9.52245 1.79095 6.4277 5.04745 6.4277 8.99277C6.4277 10.3478 6.65468 11.6019 7.07347 12.7099L0.891505 12.1113C0.367261 12.0592 -0.059064 12.5025 0.00671763 13.008C0.508867 16.8525 3.89888 19.8254 8.00596 19.8254C9.4165 19.8254 10.7221 19.6074 11.8755 19.2051L11.2524 25.1436C11.1996 25.6467 11.6596 26.0567 12.1859 25.9935C16.188 25.5111 19.2827 22.2546 19.2827 18.3093C19.2827 16.9543 19.0558 15.7002 18.637 14.5921L24.8189 15.1908C25.3432 15.2414 25.7695 14.7996 25.7037 14.294C25.2016 10.4495 21.8116 7.47667 17.7045 7.47667ZM12.8552 15.1946C12.5374 15.1946 12.2267 15.1041 11.9625 14.9345C11.6982 14.7649 11.4923 14.5238 11.3707 14.2417C11.249 13.9597 11.2172 13.6493 11.2792 13.3499C11.3412 13.0505 11.4943 12.7754 11.719 12.5596C11.9437 12.3437 12.23 12.1967 12.5417 12.1371C12.8534 12.0775 13.1765 12.1081 13.4701 12.2249C13.7638 12.3418 14.0147 12.5396 14.1913 12.7935C14.3679 13.0473 14.4621 13.3457 14.4621 13.651C14.4621 14.0604 14.2928 14.453 13.9915 14.7425C13.6901 15.032 13.2814 15.1946 12.8552 15.1946Z" fill="#0EA5E9"/>
<path d="M17.7045 7.47667C16.2939 7.47667 14.9883 7.69471 13.8349 8.097L14.4581 2.15852C14.5123 1.65492 14.0508 1.24539 13.5246 1.30858C9.52245 1.79095 6.4277 5.04745 6.4277 8.99277C6.4277 10.3478 6.65468 11.6019 7.07347 12.7099L0.891505 12.1113C0.367261 12.0592 -0.059064 12.5025 0.00671763 13.008C0.508867 16.8525 3.89888 19.8254 8.00596 19.8254C9.4165 19.8254 10.7221 19.6074 11.8755 19.2051L11.2524 25.1436C11.1996 25.6467 11.6596 26.0567 12.1859 25.9935C16.188 25.5111 19.2827 22.2546 19.2827 18.3093C19.2827 16.9543 19.0558 15.7002 18.637 14.5921L24.8189 15.1908C25.3432 15.2414 25.7695 14.7996 25.7037 14.294C25.2016 10.4495 21.8116 7.47667 17.7045 7.47667ZM12.8552 15.1946C12.5374 15.1946 12.2267 15.1041 11.9625 14.9345C11.6982 14.7649 11.4923 14.5238 11.3707 14.2417C11.249 13.9597 11.2172 13.6493 11.2792 13.3499C11.3412 13.0505 11.4943 12.7754 11.719 12.5596C11.9437 12.3437 12.23 12.1967 12.5417 12.1371C12.8534 12.0775 13.1765 12.1081 13.4701 12.2249C13.7638 12.3418 14.0147 12.5396 14.1913 12.7935C14.3679 13.0473 14.4621 13.3457 14.4621 13.651C14.4621 14.0604 14.2928 14.453 13.9915 14.7425C13.6901 15.032 13.2814 15.1946 12.8552 15.1946Z" fill="#0EA5E9"/>
<path d="M21.9519 2.09931C22.4738 1.49307 22.7347 1.18996 23.0172 1.25087C23.2996 1.31179 23.4165 1.69639 23.6502 2.46559L23.7107 2.6646C23.7771 2.88318 23.8103 2.99248 23.8805 3.075C23.9507 3.15753 24.0499 3.20395 24.2484 3.29678L24.4291 3.38129C25.1275 3.70797 25.4766 3.87131 25.5042 4.17491C25.5319 4.4785 25.2196 4.72133 24.5952 5.20689L24.4336 5.33254C24.2561 5.47051 24.1674 5.53951 24.1136 5.63696C24.0598 5.73437 24.0469 5.8492 24.0213 6.07883L23.9979 6.2879C23.9077 7.09606 23.8626 7.50013 23.5972 7.62684C23.3318 7.75356 23.022 7.51899 22.4023 7.0499L22.242 6.92857C22.0659 6.79525 21.9779 6.72862 21.8744 6.7063C21.7709 6.68399 21.6638 6.70852 21.4495 6.75764L21.2544 6.80231C20.5002 6.97509 20.1231 7.0615 19.9315 6.83622C19.7399 6.61094 19.8606 6.22317 20.1021 5.44765L20.1646 5.247C20.2332 5.02665 20.2675 4.91645 20.2574 4.80525C20.2473 4.69401 20.1939 4.59435 20.0871 4.39508L19.9899 4.21361C19.614 3.51229 19.4261 3.16159 19.573 2.89565C19.72 2.62969 20.1044 2.62459 20.8734 2.61439L21.0723 2.61175C21.2908 2.60885 21.4001 2.6074 21.4973 2.56098C21.5945 2.51456 21.6686 2.42842 21.8169 2.25615L21.9519 2.09931Z" fill="#FFBB00"/>
<path opacity="0.5" fill-rule="evenodd" clip-rule="evenodd" d="M20.9297 1.27601C20.2362 0.900621 19.4197 0.843795 18.5599 1.13327L18.4726 1.16265C18.3227 1.2131 18.1609 1.13072 18.1112 0.978666C18.0615 0.826608 18.1427 0.662441 18.2925 0.611993L18.3798 0.582614C19.3694 0.249457 20.3505 0.304951 21.1988 0.764109L21.2716 0.803488C21.4109 0.878889 21.4636 1.0546 21.3893 1.19596C21.315 1.33732 21.1418 1.39079 21.0025 1.31539L20.9297 1.27601ZM19.097 2.75266C19.0774 2.91164 18.9345 3.0244 18.7779 3.00449C18.7197 2.99713 18.6754 2.99049 18.6382 2.98496C18.5712 2.97493 18.5275 2.96843 18.4686 2.96725C18.3924 2.96571 18.2909 2.97538 18.1 3.02573C17.9471 3.06604 17.7911 2.97299 17.7514 2.81793C17.7117 2.66286 17.8034 2.5045 17.9562 2.46423C18.1777 2.40583 18.3341 2.38425 18.4799 2.38718C18.5758 2.38911 18.6721 2.40332 18.7587 2.41611C18.7902 2.42075 18.8204 2.42521 18.8489 2.42882C19.0055 2.4487 19.1166 2.59369 19.097 2.75266ZM19.0312 5.0792C18.6117 4.879 18.1248 4.88281 17.7186 5.08597C17.5769 5.15681 17.4056 5.09771 17.3358 4.95402C17.266 4.8103 17.3242 4.63641 17.4658 4.56558C18.0307 4.28306 18.7002 4.28013 19.2745 4.55417C19.4174 4.62236 19.4787 4.79518 19.4115 4.94016C19.3443 5.08514 19.174 5.14738 19.0312 5.0792Z" fill="#1C274C"/>
</svg>
