<svg width="50" height="56" viewBox="0 0 50 56" fill="none" xmlns="http://www.w3.org/2000/svg">
<path d="M32.9003 16.6925C30.2791 16.6925 27.8529 17.0918 25.7095 17.8286L26.8675 6.95301C26.9683 6.03074 26.1107 5.28074 25.1328 5.39646C17.6956 6.27986 11.9446 12.2437 11.9446 19.469C11.9446 21.9505 12.3664 24.2473 13.1446 26.2765L1.65669 25.1802C0.682482 25.0848 -0.109759 25.8967 0.0124834 26.8225C0.945629 33.8632 7.2453 39.3076 14.8775 39.3076C17.4987 39.3076 19.9249 38.9083 22.0683 38.1715L20.9103 49.0471C20.8123 49.9684 21.6671 50.7193 22.645 50.6036C30.0822 49.7202 35.8332 43.7564 35.8332 36.531C35.8332 34.0496 35.4114 31.7527 34.6331 29.7236L46.1211 30.8199C47.0953 30.9126 47.8875 30.1034 47.7653 29.1776C46.8321 22.1369 40.5325 16.6925 32.9003 16.6925ZM23.8889 30.8269C23.2983 30.8269 22.721 30.6611 22.2299 30.3505C21.7389 30.0399 21.3561 29.5984 21.1301 29.0818C20.9041 28.5653 20.845 27.9969 20.9602 27.4485C21.0754 26.9002 21.3598 26.3965 21.7774 26.0011C22.195 25.6058 22.7271 25.3365 23.3063 25.2275C23.8856 25.1184 24.486 25.1744 25.0316 25.3883C25.5772 25.6023 26.0436 25.9646 26.3717 26.4295C26.6998 26.8944 26.875 27.4409 26.875 28C26.875 28.7498 26.5604 29.4688 26.0004 29.9989C25.4404 30.5291 24.6808 30.8269 23.8889 30.8269Z" fill="#0EA5E9"/>
<path d="M16.3771 8.41768C16.7632 8.0582 16.7632 7.51899 16.3771 7.15952L9.04118 0.269605C8.65508 -0.0898684 8.07593 -0.0898684 7.68983 0.269605L0.289575 7.15952C-0.0965251 7.51899 -0.0965251 8.0582 0.289575 8.41768L1.64093 9.67583C2.02703 10.0353 2.60618 10.0353 2.99228 9.67583L5.30888 7.51899C5.69498 7.15952 6.40283 7.39917 6.40283 7.93838V20.6398C6.40283 21.1191 6.85328 21.5385 7.36808 21.5385H9.29859C9.81339 21.5385 10.2638 21.0592 10.2638 20.6398V7.93838C10.2638 7.39917 10.9717 7.15952 11.3578 7.51899L13.6744 9.67583C14.0605 10.0353 14.6396 10.0353 15.0257 9.67583L16.3771 8.41768Z" fill="#2D2A32"/>
<path d="M49.702 47.6057L48.3514 46.4108C47.9655 46.0523 47.3866 46.0523 47.0007 46.4108L44.6853 48.5616C44.2994 48.9201 43.5919 48.6811 43.5919 48.1434V35.3577C43.5919 34.8798 43.1417 34.4615 42.6272 34.4615H40.6977C40.1831 34.4615 39.7329 34.9395 39.7329 35.3577V48.0239C39.7329 48.5616 39.0254 48.8006 38.6395 48.4421L36.3241 46.2913C35.9382 45.9328 35.3594 45.9328 34.9735 46.2913L33.6228 47.6057C33.2369 47.9642 33.2369 48.5019 33.6228 48.8604L41.0192 55.7311C41.4051 56.0896 41.984 56.0896 42.3699 55.7311L49.7663 48.8604C50.0879 48.5019 50.0879 47.9044 49.702 47.6057Z" fill="#2D2A32"/>
</svg>
